<svg width="302" height="101" viewBox="0 0 302 101" fill="none" xmlns="http://www.w3.org/2000/svg">
<path d="M26.3433 18.3449V16.2059C26.3433 9.03886 26.3433 5.45534 28.5735 3.2302C30.7935 1 34.3771 1 41.5492 1C48.7162 1 52.2998 1 54.5249 3.2302C56.7551 5.45027 56.7551 9.0338 56.7551 16.2059V26.3432H26.3433V18.7402" stroke="black" stroke-width="1.5" stroke-linecap="round" stroke-linejoin="round"/>
<path d="M26.3432 16.2059C29.1411 16.2059 31.4118 16.4695 31.4118 13.6716C31.4118 10.8737 29.1411 11.1372 26.3432 11.1372M41.5491 26.3432C19.1559 26.3432 1 43.3535 1 64.3326C1 74.0391 4.88258 82.894 11.2792 89.6099C13.5601 92.0074 14.7005 93.2036 19.4803 95.2564C24.2651 97.3041 27.5597 97.3041 34.1591 97.3041H48.9392C55.5386 97.3041 58.8332 97.3041 63.618 95.2564C68.3977 93.2036 69.5382 92.0074 71.8241 89.6099C78.2106 82.894 82.0983 74.0391 82.0983 64.3326C82.0983 43.3485 63.9424 26.3432 41.5491 26.3432Z" fill="#483826"/>
<path d="M26.3432 16.2059C29.1411 16.2059 31.4118 16.4695 31.4118 13.6716C31.4118 10.8737 29.1411 11.1372 26.3432 11.1372M41.5491 26.3432C19.1559 26.3432 1 43.3535 1 64.3326C1 74.0391 4.88258 82.894 11.2792 89.6099C13.5601 92.0074 14.7005 93.2036 19.4803 95.2564C24.2651 97.3041 27.5597 97.3041 34.1591 97.3041H48.9392C55.5386 97.3041 58.8332 97.3041 63.618 95.2564C68.3977 93.2036 69.5382 92.0074 71.8241 89.6099C78.2106 82.894 82.0983 74.0391 82.0983 64.3326C82.0983 43.3485 63.9424 26.3432 41.5491 26.3432Z" stroke="black" stroke-width="1.5"/>
<path d="M3.53436 56.7551C10.8079 59.6949 19.4651 65.5239 30.7023 66.791C45.8879 68.5042 53.8356 55.863 68.9097 58.367C74.2216 59.2489 79.1737 60.7695 82.0983 62.3915" stroke="black" stroke-width="1.5" stroke-linecap="round"/>
<path d="M59.2893 16.2059H63.4456C67.3799 16.2062 71.2602 17.1225 74.7791 18.8822L79.5639 21.2746" fill="#F1ECEC"/>
<path d="M59.2893 16.2059H63.4456C67.3799 16.2062 71.2602 17.1225 74.7791 18.8822L79.5639 21.2746" stroke="black" stroke-width="1.5"/>
<path d="M94.7699 17.4731C100.832 20.9705 103.473 27.7371 100.675 32.5878C97.877 37.4334 90.6897 38.5282 84.6326 35.0309C78.5705 31.5335 75.9298 24.7618 78.7277 19.9162C81.5255 15.0655 88.7129 13.9707 94.7699 17.4731Z" stroke="black" stroke-width="1.5"/>
<path d="M139.44 38.728L139.824 43.96L125.568 68.68C125.568 68.68 125.408 68.968 125.088 69.544C124.768 70.088 124.448 70.76 124.128 71.56C123.84 72.36 123.696 73.16 123.696 73.96H123.216L121.344 69.784L139.44 38.728ZM106.896 69.496V73H101.568V72.52C101.6 72.52 101.744 72.52 102 72.52C102.224 72.52 102.336 72.52 102.336 72.52C103.2 72.52 103.968 72.264 104.64 71.752C105.312 71.208 105.712 70.456 105.84 69.496H106.896ZM109.008 70.264C109.008 70.296 109.008 70.328 109.008 70.36C109.008 70.392 109.008 70.44 109.008 70.504C109.008 71.016 109.184 71.496 109.536 71.944C109.92 72.36 110.368 72.568 110.88 72.568H111.6V73H108.672V70.264H109.008ZM109.824 38.728H110.256L111.936 43.528L108.72 73H105.36L109.824 38.728ZM110.256 38.728L125.952 64.504L123.216 73.96L109.008 50.104L110.256 38.728ZM139.872 38.728L144.432 73H136.704L134.304 50.92L139.44 38.728H139.872ZM142.944 69.496H143.952C144.112 70.456 144.528 71.208 145.2 71.752C145.872 72.264 146.624 72.52 147.456 72.52C147.456 72.52 147.584 72.52 147.84 72.52C148.096 72.52 148.224 72.52 148.224 72.52V73H142.944V69.496ZM136.416 70.264H136.752V73H133.824V72.568H134.544C135.088 72.568 135.536 72.36 135.888 71.944C136.24 71.496 136.416 71.016 136.416 70.504C136.416 70.44 136.416 70.392 136.416 70.36C136.416 70.328 136.416 70.296 136.416 70.264ZM160.662 39.4V73H153.462V39.4H160.662ZM173.334 70.936L174.486 73H160.518V70.936H173.334ZM171.558 55.432V57.448H160.518V55.432H171.558ZM173.91 39.4V41.464H160.518V39.4H173.91ZM176.838 63.16L174.63 73H165.222L166.95 70.936C168.55 70.936 169.958 70.632 171.174 70.024C172.39 69.384 173.43 68.488 174.294 67.336C175.158 66.152 175.846 64.76 176.358 63.16H176.838ZM171.558 57.352V61.96H171.078V61.576C171.078 60.392 170.694 59.416 169.926 58.648C169.158 57.88 168.182 57.48 166.998 57.448V57.352H171.558ZM171.558 50.92V55.528H166.998V55.432C168.182 55.4 169.158 55 169.926 54.232C170.694 53.432 171.078 52.44 171.078 51.256V50.92H171.558ZM173.91 41.32V46.936H173.43V46.36C173.43 44.888 172.982 43.704 172.086 42.808C171.222 41.912 170.038 41.448 168.534 41.416V41.32H173.91ZM173.91 38.536V39.928L168.054 39.4C168.758 39.4 169.494 39.352 170.262 39.256C171.062 39.16 171.798 39.048 172.47 38.92C173.142 38.792 173.622 38.664 173.91 38.536ZM153.606 69.496V73H149.766V72.52C149.766 72.52 149.862 72.52 150.054 72.52C150.278 72.52 150.39 72.52 150.39 72.52C151.222 72.52 151.926 72.232 152.502 71.656C153.11 71.048 153.43 70.328 153.462 69.496H153.606ZM153.606 42.904H153.462C153.43 42.072 153.11 41.368 152.502 40.792C151.926 40.184 151.222 39.88 150.39 39.88C150.39 39.88 150.278 39.88 150.054 39.88C149.862 39.88 149.766 39.88 149.766 39.88V39.4H153.606V42.904ZM157.542 36.568C156.742 36.568 156.054 36.296 155.478 35.752C154.934 35.176 154.662 34.488 154.662 33.688C154.662 32.856 154.934 32.168 155.478 31.624C156.054 31.08 156.742 30.808 157.542 30.808C158.342 30.808 159.014 31.08 159.558 31.624C160.134 32.168 160.422 32.856 160.422 33.688C160.422 34.488 160.134 35.176 159.558 35.752C159.014 36.296 158.342 36.568 157.542 36.568ZM168.726 36.568C167.926 36.568 167.238 36.296 166.662 35.752C166.118 35.176 165.846 34.488 165.846 33.688C165.846 32.856 166.118 32.168 166.662 31.624C167.238 31.08 167.926 30.808 168.726 30.808C169.526 30.808 170.198 31.08 170.742 31.624C171.318 32.168 171.606 32.856 171.606 33.688C171.606 34.488 171.318 35.176 170.742 35.752C170.198 36.296 169.526 36.568 168.726 36.568ZM191.134 39.4V71.56C191.134 73.32 190.782 74.904 190.078 76.312C189.374 77.752 188.414 78.968 187.198 79.96C186.014 80.952 184.654 81.672 183.118 82.12C181.582 82.6 179.982 82.76 178.318 82.6V82.168C179.662 81.592 180.75 80.728 181.582 79.576C182.414 78.456 183.006 77.176 183.358 75.736C183.742 74.328 183.934 72.888 183.934 71.416V39.4H191.134ZM184.078 42.904H183.934C183.902 42.072 183.582 41.368 182.974 40.792C182.398 40.184 181.694 39.88 180.862 39.88C180.862 39.88 180.75 39.88 180.526 39.88C180.334 39.88 180.238 39.88 180.238 39.88V39.4H184.078V42.904ZM190.99 42.904V39.4H194.83V39.88C194.83 39.88 194.718 39.88 194.494 39.88C194.302 39.88 194.206 39.88 194.206 39.88C193.374 39.88 192.654 40.184 192.046 40.792C191.47 41.368 191.166 42.072 191.134 42.904H190.99ZM182.112 39.592L189.024 32.248H189.552L196.896 39.592L196.56 39.976L189.264 36.904L182.4 39.976L182.112 39.592ZM208.896 39.4V73H201.696V39.4H208.896ZM221.568 70.936L222.72 73H208.752V70.936H221.568ZM225.072 63.16L222.864 73H213.456L215.184 70.936C216.784 70.936 218.192 70.632 219.408 70.024C220.624 69.384 221.664 68.488 222.528 67.336C223.392 66.152 224.08 64.76 224.592 63.16H225.072ZM201.84 69.496V73H198V72.52C198 72.52 198.096 72.52 198.288 72.52C198.512 72.52 198.624 72.52 198.624 72.52C199.456 72.52 200.16 72.232 200.736 71.656C201.344 71.048 201.664 70.328 201.696 69.496H201.84ZM201.84 42.904H201.696C201.664 42.072 201.344 41.368 200.736 40.792C200.16 40.184 199.456 39.88 198.624 39.88C198.624 39.88 198.512 39.88 198.288 39.88C198.096 39.88 198 39.88 198 39.88V39.4H201.84V42.904ZM208.752 42.904V39.4H212.592V39.88C212.56 39.88 212.448 39.88 212.256 39.88C212.064 39.88 211.968 39.88 211.968 39.88C211.136 39.88 210.416 40.184 209.808 40.792C209.232 41.368 208.928 42.072 208.896 42.904H208.752ZM238.24 39.4V73H231.04V39.4H238.24ZM250.912 70.936L252.064 73H238.096V70.936H250.912ZM254.416 63.16L252.208 73H242.8L244.528 70.936C246.128 70.936 247.536 70.632 248.752 70.024C249.968 69.384 251.008 68.488 251.872 67.336C252.736 66.152 253.424 64.76 253.936 63.16H254.416ZM231.184 69.496V73H227.344V72.52C227.344 72.52 227.44 72.52 227.632 72.52C227.856 72.52 227.968 72.52 227.968 72.52C228.8 72.52 229.504 72.232 230.08 71.656C230.688 71.048 231.008 70.328 231.04 69.496H231.184ZM231.184 42.904H231.04C231.008 42.072 230.688 41.368 230.08 40.792C229.504 40.184 228.8 39.88 227.968 39.88C227.968 39.88 227.856 39.88 227.632 39.88C227.44 39.88 227.344 39.88 227.344 39.88V39.4H231.184V42.904ZM238.096 42.904V39.4H241.936V39.88C241.904 39.88 241.792 39.88 241.6 39.88C241.408 39.88 241.312 39.88 241.312 39.88C240.48 39.88 239.76 40.184 239.152 40.792C238.576 41.368 238.272 42.072 238.24 42.904H238.096ZM283.993 38.728C283.993 38.728 283.993 38.808 283.993 38.968C283.993 39.096 283.993 39.16 283.993 39.16L265.081 73H257.113V72.568L274.681 41.368H257.785V39.352H278.905C279.545 39.352 280.217 39.32 280.921 39.256C281.657 39.192 282.297 39.112 282.841 39.016C283.417 38.92 283.801 38.824 283.993 38.728ZM283.465 70.984L283.177 73H260.473V70.984H283.465ZM285.337 63.352L283.609 73H274.825L275.449 71.464L276.217 70.984C278.329 70.984 280.137 70.296 281.641 68.92C283.177 67.512 284.249 65.656 284.857 63.352H285.337ZM263.113 41.368C261.609 41.4 260.425 41.864 259.561 42.76C258.697 43.624 258.265 44.808 258.265 46.312V46.888H257.785V41.224H263.113V41.368ZM257.785 38.488C258.105 38.616 258.585 38.744 259.225 38.872C259.897 39 260.633 39.112 261.433 39.208C262.233 39.304 262.969 39.352 263.641 39.352L257.785 39.88V38.488Z" fill="#110A01"/>
</svg>
